# xmcd
#
# Track frame offsets: 
#        150
#        20055
#        59270
#        81550
#
# Disc length: 1549 seconds
#
# Revision: 0
# Processed by: cddbd v1.5.2PL0 Copyright (c) Steve Scherf et al.
# Submitted via: ExactAudioCopy v1.3
#
DISCID=31060b04
DTITLE=Janiss Joplin - Woodstock Sunday August 17, 1969 [CD2]
DYEAR=2019
DGENRE=Blues
TTITLE0=Can't Turn You Loose
TTITLE1=Work Me, Lord
TTITLE2=Piece Of My Heart
TTITLE3=Ball And Chain
EXTD=
EXTT0=
EXTT1=
EXTT2=
EXTT3=
PLAYORDER=
